<svg xmlns="http://www.w3.org/2000/svg" viewBox="0 0 24 24" width="24" height="24">
  <path fill="#FF9900" d="M13.106 10.666c.096.096.192.192.288.288-.096-.096-.192-.192-.288-.288z"/>
  <path fill="#FF9900" d="M19.07 10.666c-1.344-1.344-3.504-1.344-4.848 0l-.288.288c-.096-.096-.192-.192-.288-.288-1.344-1.344-3.504-1.344-4.848 0s-1.344 3.504 0 4.848l2.592 2.592c.096.096.192.192.288.288.096.096.192.192.288.288 1.344 1.344 3.504 1.344 4.848 0l2.256-2.256c1.344-1.344 1.344-3.504 0-4.848v-.912zm-1.152 3.696l-2.256 2.256c-.672.672-1.728.672-2.4 0-.096-.096-.192-.192-.288-.288-.096-.096-.192-.192-.288-.288l-2.592-2.592c-.672-.672-.672-1.728 0-2.4.672-.672 1.728-.672 2.4 0l.288.288.288.288.288-.288.288-.288c.672-.672 1.728-.672 2.4 0 .672.672.672 1.728 0 2.4l-.048.912z"/>
  <path fill="#232F3E" d="M20.8 8.936c-1.92-1.92-5.04-1.92-6.96 0-.096.096-.192.192-.288.288-.096-.096-.192-.192-.288-.288-1.92-1.92-5.04-1.92-6.96 0-1.92 1.92-1.92 5.04 0 6.96l3.744 3.744c.096.096.192.192.288.288.096.096.192.192.288.288 1.92 1.92 5.04 1.92 6.96 0l3.216-3.216c1.92-1.92 1.92-5.04 0-6.96v-1.104zm-1.728 5.424l-3.216 3.216c-1.248 1.248-3.264 1.248-4.512 0-.096-.096-.192-.192-.288-.288-.096-.096-.192-.192-.288-.288l-3.744-3.744c-1.248-1.248-1.248-3.264 0-4.512 1.248-1.248 3.264-1.248 4.512 0l.288.288.288.288.288-.288.288-.288c1.248-1.248 3.264-1.248 4.512 0 1.248 1.248 1.248 3.264 0 4.512l-.048 1.104z"/>
  <path fill="#232F3E" d="M12 2C6.48 2 2 6.48 2 12s4.48 10 10 10 10-4.48 10-10S17.52 2 12 2zm0 18c-4.41 0-8-3.59-8-8s3.59-8 8-8 8 3.59 8 8-3.59 8-8 8z"/>
</svg>
